<?xml version="1.0" encoding="UTF-8"?>
<svg id="Calque_1" xmlns="http://www.w3.org/2000/svg" version="1.1" viewBox="0 0 1366 220">
  <!-- Generator: Adobe Illustrator 29.0.0, SVG Export Plug-In . SVG Version: 2.1.0 Build 186)  -->
  <defs>
    <style>
      .st0 {
        fill: #e83c13;
      }

      .st1 {
        fill: #fff;
      }

      .st2 {
        fill: #e43500;
      }

      .st3 {
        fill: #e3342a;
      }
    </style>
  </defs>
  <path class="st1" d="M1129.17,118.85c-1.08-4.3-1.69-8.2-1.84-11.68s.18-6.45,1-8.91c.82-2.46,2.1-4.05,3.84-4.76.82-.31,1.59-.46,2.3-.46,1.84,0,3.82.69,5.92,2.07,2.1,1.38,4.25,3.36,6.45,5.92s4.35,5.56,6.45,8.99,4.02,7.25,5.76,11.45c1.94,4.51,3.46,8.99,4.53,13.45,1.08,4.46,1.74,8.53,2,12.22.25,3.69,0,6.79-.77,9.3-.77,2.51-2.02,4.17-3.76,4.99-.61.31-1.28.46-2,.46-1.84,0-3.87-.77-6.07-2.3-2.2-1.54-4.43-3.66-6.68-6.38-2.25-2.71-4.48-5.86-6.68-9.45-2.2-3.59-4.17-7.43-5.92-11.52-1.95-4.61-3.46-9.07-4.53-13.37M1109.8,142.97c2.1,4.82,4.97,9.04,8.61,12.68,3.63,3.64,7.86,6.51,12.68,8.61,4.81,2.1,9.99,3.15,15.52,3.15s10.7-1.05,15.52-3.15c4.81-2.1,9.04-4.97,12.68-8.61,3.63-3.63,6.51-7.86,8.61-12.68,2.1-4.81,3.15-9.99,3.15-15.52s-1.05-10.7-3.15-15.52c-2.1-4.81-4.97-9.04-8.61-12.68-3.64-3.63-7.86-6.51-12.68-8.61-4.82-2.1-9.99-3.15-15.52-3.15s-10.71,1.05-15.52,3.15c-4.82,2.1-9.04,4.97-12.68,8.61s-6.51,7.86-8.61,12.68-3.15,9.99-3.15,15.52,1.05,10.71,3.15,15.52M1097.43,165.87l-9.22-11.83v-64.85l-36.11,4.61,9.99,13.52v46.71l-9.22,11.83h44.56,0ZM951.99,142.97c2.1,4.82,4.97,9.04,8.61,12.68,3.63,3.64,7.86,6.51,12.68,8.61,4.81,2.1,9.99,3.15,15.52,3.15,6.76,0,13.01-1.59,18.75-4.76v3.23h35.34l-9.22-11.83V58.31l-36.11,4.61,9.99,13.52v15.83c-5.74-3.17-11.99-4.76-18.75-4.76-5.53,0-10.71,1.05-15.52,3.15-4.82,2.1-9.04,4.97-12.68,8.61s-6.51,7.86-8.61,12.68-3.15,9.99-3.15,15.52,1.05,10.71,3.15,15.52M971.35,118.85c-1.08-4.3-1.69-8.2-1.84-11.68s.18-6.45,1-8.91c.82-2.46,2.1-4.05,3.84-4.76.82-.31,1.59-.46,2.3-.46,1.84,0,3.82.69,5.92,2.07s4.25,3.36,6.45,5.92,4.35,5.56,6.45,8.99c2.1,3.43,4.02,7.25,5.76,11.45.51,1.13,1.13,2.79,1.84,4.99.71,2.2,1.43,4.66,2.15,7.38.71,2.71,1.31,5.56,1.77,8.53s.69,5.74.69,8.3-.33,4.82-1,6.76c-.67,1.95-1.82,3.28-3.46,4-.61.31-1.28.46-2,.46-1.84,0-3.87-.77-6.07-2.3-2.2-1.54-4.43-3.66-6.68-6.38-2.25-2.71-4.48-5.86-6.68-9.45s-4.17-7.43-5.92-11.52c-1.95-4.61-3.46-9.07-4.53-13.37M944.23,165.87l-9.22-11.83v-65l-35.34,6.15,9.22,11.83v20.28c0,1.54-.08,3.51-.23,5.92-.15,2.41-.46,4.97-.92,7.68-.46,2.71-1.1,5.43-1.92,8.14s-1.84,5.15-3.07,7.3c-1.23,2.15-2.69,3.92-4.38,5.3s-3.66,2.07-5.92,2.07c-1.54,0-3-.54-4.38-1.61-1.38-1.08-2.59-3.02-3.61-5.84-1.02-2.82-1.82-6.63-2.38-11.45-.56-4.81-.85-10.91-.85-18.29v-37.49l-35.34,6.15,9.22,11.83v19.52c0,7.58.77,13.96,2.3,19.13,1.54,5.17,3.66,9.37,6.38,12.6,2.71,3.23,5.92,5.56,9.6,6.99,3.69,1.43,7.68,2.15,11.99,2.15,6.04,0,10.96-1.21,14.75-3.61,3.79-2.41,6.71-6.63,8.76-12.68v14.75h35.34ZM838.36,152.96c-3.69,4.41-6.45,6.61-8.3,6.61-.92,0-1.67-.46-2.23-1.38s-1-2.15-1.31-3.69c-.31-1.54-.51-3.3-.61-5.3s-.15-4.12-.15-6.38v-60.7c4.51-1.43,8.99-3.1,13.45-4.99,4.46-1.9,9.09-4.02,13.91-6.38,6.66-3.28,12.88-5.69,18.67-7.22,5.79-1.54,11.24-2.3,16.37-2.3,9.01,0,17.03,2,24.05,5.99,7.02,4,13.39,9.27,19.13,15.83l11.37-30.12c-5.43-2.36-10.47-4.23-15.14-5.61-4.66-1.38-9.5-2.07-14.52-2.07-3.69,0-7.56.41-11.6,1.23-4.05.82-8.45,2.1-13.22,3.84-4.76,1.74-9.96,4-15.6,6.76-5.63,2.77-11.93,6.1-18.9,9.99-8.91,5.02-18.23,8.97-27.97,11.83v-20.59l-25.05,25.05c-5.74.31-23.82.49-23.82-16.29v33.81c0-16.21,20.59-13.88,22.74-13.98v55.78c0,4.61.51,8.53,1.54,11.76,1.02,3.23,2.41,5.86,4.15,7.91,1.74,2.05,3.82,3.53,6.22,4.46,2.41.92,4.99,1.38,7.76,1.38.92,0,1.84-.05,2.77-.15.92-.1,1.84-.26,2.77-.46,1.94-.41,3.61-1.08,4.99-2s2.59-1.94,3.61-3.07c1.02-1.13,1.92-2.25,2.69-3.38s1.51-2.15,2.23-3.07v-3.1ZM724.49,65.91c2.56-3.23,6.51-4.84,11.83-4.84.82,0,1.66.05,2.54.15.87.1,1.77.26,2.69.46,3.89.72,7.27,2.59,10.14,5.61s5.61,6.48,8.22,10.37,5.25,7.94,7.91,12.14,5.69,7.89,9.07,11.06v-33.81c-2.77-1.74-5.99-3.25-9.68-4.53s-7.53-2.38-11.52-3.3c-4-.92-7.97-1.61-11.91-2.07s-7.61-.69-10.99-.69c-4,0-7.99.31-11.99.92-4,.61-7.66,1.59-10.99,2.92-3.33,1.33-6.2,3.1-8.61,5.3-2.41,2.2-4.02,4.89-4.84,8.07-.92,3.18-1.1,6.4-.54,9.68s1.97,6.68,4.23,10.22c2.25,3.53,5.48,7.22,9.68,11.06s9.53,7.91,15.98,12.22c6.76,4.51,12.55,8.55,17.36,12.14s8.55,6.86,11.22,9.83c2.66,3.07,4.1,6.4,4.3,9.99.2,3.59-.51,6.86-2.15,9.83s-4.05,5.4-7.22,7.3c-3.18,1.9-6.86,2.69-11.06,2.38-6.15-.51-11.14-1.69-14.98-3.53-3.84-1.84-6.86-4.25-9.07-7.22-2.2-2.97-3.79-6.35-4.76-10.14-.98-3.79-1.64-7.89-2-12.29s-.59-9.01-.69-13.83c-.1-4.81-.46-9.68-1.08-14.6l-23.97,23.97c3.59,6.86,7.32,12.81,11.22,17.82,3.89,5.02,8.24,9.2,13.06,12.52,4.81,3.33,10.24,5.79,16.29,7.38,6.04,1.59,13.01,2.38,20.9,2.38,11.78,0,21.1-1.84,27.97-5.53,6.86-3.69,11.22-8.45,13.06-14.29,1.94-6.04.97-12.65-2.92-19.82-3.89-7.17-11.01-14.08-21.36-20.74-11.37-7.27-20.16-13.42-26.35-18.44-6.2-5.02-9.86-9.68-10.99-13.98-1.23-4.81-.56-8.84,2-12.06"/>
  <g>
    <path class="st1" d="M1335.63,115.42c-2.91-5.22-8.13-7.83-15.66-7.83s-12.75,2.61-15.66,7.83-4.37,12.56-4.37,22.01,1.44,17.06,4.33,22.34,8.12,7.91,15.7,7.91,12.75-2.64,15.66-7.91,4.37-12.72,4.37-22.34-1.46-16.79-4.37-22.01h0ZM1333.24,150.65c-.71,3.54-2.12,6.39-4.2,8.53-2.09,2.14-5.11,3.21-9.07,3.21s-6.98-1.07-9.07-3.21-3.49-4.99-4.2-8.53-1.07-7.95-1.07-13.23.36-9.42,1.07-12.94c.71-3.52,2.11-6.35,4.2-8.49s5.11-3.21,9.07-3.21,6.98,1.07,9.07,3.21,3.49,4.97,4.2,8.49,1.07,7.83,1.07,12.94-.36,9.68-1.07,13.23Z"/>
    <path class="st1" d="M1287.17,159.43c-1.21,0-2.21.4-3.01,1.2s-1.2,1.8-1.2,3.01.4,2.23,1.2,3.05c.79.82,1.8,1.24,3.01,1.24s2.13-.41,2.93-1.24c.79-.82,1.2-1.84,1.2-3.05s-.4-2.21-1.2-3.01c-.8-.79-1.77-1.2-2.93-1.2Z"/>
    <path class="st1" d="M1255.77,128.27c-4.01,0-7.57.95-10.67,2.84-3.1,1.9-5.21,4.49-6.31,7.79-.22-9.51,1.02-16.35,3.71-20.52,2.69-4.18,6.73-6.26,12.12-6.26,7.09,0,11.24,3.57,12.45,10.71h5.36c-.55-4.62-2.34-8.37-5.36-11.25s-7.17-4.33-12.45-4.33c-13.96,0-20.93,10.17-20.93,30.5,0,9.56,1.55,16.95,4.66,22.17,3.1,5.22,8.75,7.83,16.94,7.83,4.29,0,7.87-.88,10.76-2.64,2.88-1.76,5.03-4.11,6.43-7.05s2.1-6.22,2.1-9.85c0-6.21-1.69-11.09-5.07-14.63-3.38-3.54-7.95-5.32-13.72-5.32h-.02ZM1265.16,159.02c-2.53,2.58-5.91,3.87-10.14,3.87-5.06,0-8.9-1.48-11.54-4.45s-3.96-6.68-3.96-11.13c0-3.08.73-5.67,2.18-7.79,1.45-2.11,3.34-3.7,5.65-4.74,2.31-1.04,4.75-1.57,7.34-1.57,4.56,0,8.08,1.35,10.55,4.04,2.47,2.69,3.71,6.43,3.71,11.21,0,4.45-1.27,7.97-3.79,10.55h0Z"/>
  </g>
  <path class="st3" d="M1096.12,68.15h0c-11.25,0-20.36,9.12-20.36,20.36h0c0-11.25-9.12-20.36-20.36-20.36h0c11.25,0,20.36-9.12,20.36-20.36h0c0,11.25,9.12,20.36,20.36,20.36Z"/>
  <g>
    <g>
      <rect class="st0" x="27" y="48.32" width="127.42" height="127.42"/>
      <path class="st1" d="M124.64,74.06v44.68c0,10.06-2.98,18.13-8.93,24.2-5.95,6.08-14.28,9.12-24.98,9.12s-19.12-3.04-25.06-9.12c-5.94-6.08-8.9-14.15-8.9-24.2v-44.68h18.34v44.36c0,5.08,1.32,9.19,3.97,12.31,2.65,3.13,6.52,4.69,11.62,4.69s8.97-1.56,11.62-4.69c2.65-3.13,3.97-7.23,3.97-12.31v-44.36h18.35Z"/>
      <rect class="st0" x="167.28" y="48.32" width="127.42" height="127.42"/>
      <rect class="st0" x="307.43" y="48.32" width="127.42" height="127.42"/>
      <rect class="st0" x="447.59" y="48.32" width="127.42" height="127.42"/>
      <polygon class="st1" points="271.55 73.8 271.55 150.25 253.43 150.25 253.43 105.47 230.93 136.18 208.54 105.47 208.54 150.25 190.41 150.25 190.41 73.8 207.63 73.8 231.04 107.76 254.28 73.8 271.55 73.8"/>
      <path class="st1" d="M379.72,132.73c2.13-2.12,3.2-4.84,3.2-8.18s-1.07-5.87-3.2-8.02c-2.13-2.15-4.99-3.23-8.58-3.23s-6.32,1.07-8.5,3.2c-2.19,2.13-3.28,4.82-3.28,8.05s1.07,6.07,3.23,8.18c2.15,2.11,5.01,3.17,8.58,3.17s6.42-1.06,8.56-3.17M393.37,105.97c5.05,4.96,7.57,11.15,7.57,18.58,0,7.85-2.84,14.4-8.5,19.65-5.67,5.24-12.76,7.86-21.27,7.86s-15.61-2.6-21.3-7.81c-5.69-5.21-8.53-11.77-8.53-19.7,0-5.08,1.8-10.48,5.39-16.21l21.7-34.28h20.42l-14.93,23.62c7.93.57,14.41,3.33,19.46,8.29"/>
      <path class="st1" d="M522.71,109.31c2.06-2.24,3.09-4.85,3.09-7.84s-.98-5.61-2.93-7.86c-1.96-2.26-4.39-3.39-7.3-3.39h-18.45v22.44h17.7c3.2,0,5.83-1.12,7.89-3.36M535.8,82.22c5.06,5.61,7.6,11.98,7.6,19.09s-2.57,13.61-7.7,19.19c-5.14,5.58-11.95,8.37-20.44,8.37h-18.13v21.38h-17.91v-76.45h36.78c8.14,0,14.74,2.81,19.81,8.42"/>
    </g>
    <rect class="st2" x="639.08" y="48.29" width="1.66" height="127.46"/>
  </g>
</svg>